<?xml version="1.0" encoding="UTF-8" standalone="no"?>
<svg width="40" height="40" viewBox="0 0 40 40" fill="none" xmlns="http://www.w3.org/2000/svg">
  <!-- Animated Clouds -->
  <g>
    <!-- First Cloud -->
    <path d="M4 9.5C4 8.1 5.1 7 6.5 7C7.3 7 8 7.3 8.5 7.8C8.8 6.5 10 5.5 11.5 5.5C13 5.5 14.2 6.5 14.5 7.8C15 7.3 15.7 7 16.5 7C17.9 7 19 8.1 19 9.5C19 10.9 17.9 12 16.5 12H6.5C5.1 12 4 10.9 4 9.5Z" 
          fill="#E2E8F0" opacity="0.7">
      <animate attributeName="d" dur="4s" repeatCount="indefinite"
        values="M4 9.5C4 8.1 5.1 7 6.5 7C7.3 7 8 7.3 8.5 7.8C8.8 6.5 10 5.5 11.5 5.5C13 5.5 14.2 6.5 14.5 7.8C15 7.3 15.7 7 16.5 7C17.9 7 19 8.1 19 9.5C19 10.9 17.9 12 16.5 12H6.5C5.1 12 4 10.9 4 9.5Z;
                M6 8.5C6 7.1 7.1 6 8.5 6C9.3 6 10 6.3 10.5 6.8C10.8 5.5 12 4.5 13.5 4.5C15 4.5 16.2 5.5 16.5 6.8C17 6.3 17.7 6 18.5 6C19.9 6 21 7.1 21 8.5C21 9.9 19.9 11 18.5 11H8.5C7.1 11 6 9.9 6 8.5Z;
                M4 9.5C4 8.1 5.1 7 6.5 7C7.3 7 8 7.3 8.5 7.8C8.8 6.5 10 5.5 11.5 5.5C13 5.5 14.2 6.5 14.5 7.8C15 7.3 15.7 7 16.5 7C17.9 7 19 8.1 19 9.5C19 10.9 17.9 12 16.5 12H6.5C5.1 12 4 10.9 4 9.5Z"/>
    </path>
    
    <!-- Second Cloud -->
    <path d="M24 7.5C24 6.1 25.1 5 26.5 5C27.3 5 28 5.3 28.5 5.8C28.8 4.5 30 3.5 31.5 3.5C33 3.5 34.2 4.5 34.5 5.8C35 5.3 35.7 5 36.5 5C37.9 5 39 6.1 39 7.5C39 8.9 37.9 10 36.5 10H26.5C25.1 10 24 8.9 24 7.5Z" 
          fill="#E2E8F0" opacity="0.7">
      <animate attributeName="d" dur="5s" repeatCount="indefinite"
        values="M24 7.5C24 6.1 25.1 5 26.5 5C27.3 5 28 5.3 28.5 5.8C28.8 4.5 30 3.5 31.5 3.5C33 3.5 34.2 4.5 34.5 5.8C35 5.3 35.7 5 36.5 5C37.9 5 39 6.1 39 7.5C39 8.9 37.9 10 36.5 10H26.5C25.1 10 24 8.9 24 7.5Z;
                M26 6.5C26 5.1 27.1 4 28.5 4C29.3 4 30 4.3 30.5 4.8C30.8 3.5 32 2.5 33.5 2.5C35 2.5 36.2 3.5 36.5 4.8C37 4.3 37.7 4 38.5 4C39.9 4 41 5.1 41 6.5C41 7.9 39.9 9 38.5 9H28.5C27.1 9 26 7.9 26 6.5Z;
                M24 7.5C24 6.1 25.1 5 26.5 5C27.3 5 28 5.3 28.5 5.8C28.8 4.5 30 3.5 31.5 3.5C33 3.5 34.2 4.5 34.5 5.8C35 5.3 35.7 5 36.5 5C37.9 5 39 6.1 39 7.5C39 8.9 37.9 10 36.5 10H26.5C25.1 10 24 8.9 24 7.5Z"/>
    </path>
  </g>

  <!-- Mountains -->
  <g>
    <!-- Back Mountain -->
    <path d="M0 30L15 10L30 30H0Z" fill="#1E40AF" opacity="0.6"/>
    <!-- Middle Mountain -->
    <path d="M10 30L25 15L40 30H10Z" fill="#2563EB" opacity="0.8"/>
    <!-- Front Mountain with Snow Cap -->
    <path d="M5 30L20 5L35 30H5Z" fill="#3B82F6"/>
    <path d="M17 8L20 5L23 8L20 12Z" fill="#F1F5F9"/> <!-- Snow Cap -->
  </g>

  <!-- Animated River -->
  <path d="M0 32C10 30 15 31 20 30S25 29 40 31" stroke="#60A5FA" stroke-width="2" opacity="0.8">
    <animate attributeName="d" dur="3s" repeatCount="indefinite"
      values="M0 32C10 30 15 31 20 30S25 29 40 31;
              M0 31C10 29 15 30 20 29S25 30 40 30;
              M0 32C10 30 15 31 20 30S25 29 40 31"/>
  </path>
  <path d="M0 34C10 32 15 33 20 32S25 31 40 33" stroke="#93C5FD" stroke-width="1.5" opacity="0.6">
    <animate attributeName="d" dur="2.5s" repeatCount="indefinite"
      values="M0 34C10 32 15 33 20 32S25 31 40 33;
              M0 33C10 31 15 32 20 31S25 32 40 32;
              M0 34C10 32 15 33 20 32S25 31 40 33"/>
  </path>

  <!-- Trees -->
  <g>
    <path d="M5 30L7 25L9 30H5Z" fill="#22C55E" opacity="0.8"/> <!-- Left Tree -->
    <path d="M32 30L34 26L36 30H32Z" fill="#22C55E" opacity="0.8"/> <!-- Right Tree -->
  </g>
</svg>